<svg version="1.1" xmlns="http://www.w3.org/2000/svg" viewBox="0 0 1216.371428762166 650.4611488372029" width="1216.371428762166" height="650.4611488372029">
  <!-- svg-source:excalidraw -->
  
  <defs>
    <style class="style-fonts">
      @font-face {
        font-family: "Virgil";
        src: url("https://excalidraw.com/Virgil.woff2");
      }
      @font-face {
        font-family: "Cascadia";
        src: url("https://excalidraw.com/Cascadia.woff2");
      }
      @font-face {
        font-family: "Assistant";
        src: url("https://excalidraw.com/Assistant-Regular.woff2");
      }
    </style>
    
  </defs>
  <rect x="0" y="0" width="1216.371428762166" height="650.4611488372029" fill="#ffffff"></rect><g transform="translate(626.4435697203735 37.82319175945031) rotate(0 32.91666793823242 35)"><text x="0" y="0" font-family="Virgil, Segoe UI Emoji" font-size="28px" fill="#000000" text-anchor="start" style="white-space: pre;" direction="ltr" dominant-baseline="text-before-edge">Root</text><text x="0" y="35" font-family="Virgil, Segoe UI Emoji" font-size="28px" fill="#000000" text-anchor="start" style="white-space: pre;" direction="ltr" dominant-baseline="text-before-edge"></text></g><g stroke-linecap="round" transform="translate(578.5719594916663 10) rotate(0 83.45218714847806 45.04131744726078)"><path d="M22.52 0 C58.04 0, 93.56 0, 144.38 0 M22.52 0 C65.52 0, 108.52 0, 144.38 0 M144.38 0 C159.4 0, 166.9 7.51, 166.9 22.52 M144.38 0 C159.4 0, 166.9 7.51, 166.9 22.52 M166.9 22.52 C166.9 31.74, 166.9 40.96, 166.9 67.56 M166.9 22.52 C166.9 40.42, 166.9 58.32, 166.9 67.56 M166.9 67.56 C166.9 82.58, 159.4 90.08, 144.38 90.08 M166.9 67.56 C166.9 82.58, 159.4 90.08, 144.38 90.08 M144.38 90.08 C116.73 90.08, 89.09 90.08, 22.52 90.08 M144.38 90.08 C114.42 90.08, 84.46 90.08, 22.52 90.08 M22.52 90.08 C7.51 90.08, 0 82.58, 0 67.56 M22.52 90.08 C7.51 90.08, 0 82.58, 0 67.56 M0 67.56 C0 57.91, 0 48.27, 0 22.52 M0 67.56 C0 51.11, 0 34.65, 0 22.52 M0 22.52 C0 7.51, 7.51 0, 22.52 0 M0 22.52 C0 7.51, 7.51 0, 22.52 0" stroke="#000000" stroke-width="1" fill="none"></path></g><g stroke-linecap="round" transform="translate(240.80943813162048 214.18625265876835) rotate(0 83.45218714847806 45.04131744726078)"><path d="M22.52 0 C60.69 0, 98.85 0, 144.38 0 M22.52 0 C54.6 0, 86.68 0, 144.38 0 M144.38 0 C159.4 0, 166.9 7.51, 166.9 22.52 M144.38 0 C159.4 0, 166.9 7.51, 166.9 22.52 M166.9 22.52 C166.9 38.66, 166.9 54.79, 166.9 67.56 M166.9 22.52 C166.9 32.37, 166.9 42.23, 166.9 67.56 M166.9 67.56 C166.9 82.58, 159.4 90.08, 144.38 90.08 M166.9 67.56 C166.9 82.58, 159.4 90.08, 144.38 90.08 M144.38 90.08 C103.45 90.08, 62.52 90.08, 22.52 90.08 M144.38 90.08 C102.51 90.08, 60.63 90.08, 22.52 90.08 M22.52 90.08 C7.51 90.08, 0 82.58, 0 67.56 M22.52 90.08 C7.51 90.08, 0 82.58, 0 67.56 M0 67.56 C0 52.46, 0 37.36, 0 22.52 M0 67.56 C0 57.62, 0 47.69, 0 22.52 M0 22.52 C0 7.51, 7.51 0, 22.52 0 M0 22.52 C0 7.51, 7.51 0, 22.52 0" stroke="#000000" stroke-width="1" fill="none"></path></g><g transform="translate(246.55328940363415 241.7275701060289) rotate(0 77.70833587646484 17.5)"><text x="77.70833587646484" y="0" font-family="Virgil, Segoe UI Emoji" font-size="28px" fill="#000000" text-anchor="middle" style="white-space: pre;" direction="ltr" dominant-baseline="text-before-edge">Model Root</text></g><g stroke-linecap="round"><g transform="translate(324.64902243766664 305.3164233075886) rotate(0 -71.89773316845049 41.47027619034907)"><path d="M0 0 C-23.97 13.82, -119.83 69.12, -143.8 82.94 M0 0 C-23.97 13.82, -119.83 69.12, -143.8 82.94" stroke="#000000" stroke-width="1" fill="none"></path></g></g><mask></mask><g stroke-linecap="round" transform="translate(94.37479521753812 389.0833360793158) rotate(0 83.45218714847806 45.04131744726078)"><path d="M22.52 0 C54.52 0, 86.52 0, 144.38 0 M22.52 0 C56.55 0, 90.57 0, 144.38 0 M144.38 0 C159.4 0, 166.9 7.51, 166.9 22.52 M144.38 0 C159.4 0, 166.9 7.51, 166.9 22.52 M166.9 22.52 C166.9 32.75, 166.9 42.98, 166.9 67.56 M166.9 22.52 C166.9 39.65, 166.9 56.78, 166.9 67.56 M166.9 67.56 C166.9 82.58, 159.4 90.08, 144.38 90.08 M166.9 67.56 C166.9 82.58, 159.4 90.08, 144.38 90.08 M144.38 90.08 C110.84 90.08, 77.3 90.08, 22.52 90.08 M144.38 90.08 C103.02 90.08, 61.66 90.08, 22.52 90.08 M22.52 90.08 C7.51 90.08, 0 82.58, 0 67.56 M22.52 90.08 C7.51 90.08, 0 82.58, 0 67.56 M0 67.56 C0 55.13, 0 42.71, 0 22.52 M0 67.56 C0 53.84, 0 40.13, 0 22.52 M0 22.52 C0 7.51, 7.51 0, 22.52 0 M0 22.52 C0 7.51, 7.51 0, 22.52 0" stroke="#000000" stroke-width="1" fill="none"></path></g><g transform="translate(145.42698084013773 416.62465352657637) rotate(0 32.400001525878906 17.5)"><text x="32.400001525878906" y="0" font-family="Virgil, Segoe UI Emoji" font-size="28px" fill="#000000" text-anchor="middle" style="white-space: pre;" direction="ltr" dominant-baseline="text-before-edge">Node</text></g><g stroke-linecap="round"><g transform="translate(665.0831871371684 103.40416018269843) rotate(0 -167.43055555555566 55.55555555555566)"><path d="M0 0 C-55.81 18.52, -279.05 92.59, -334.86 111.11 M0 0 C-55.81 18.52, -279.05 92.59, -334.86 111.11" stroke="#1e1e1e" stroke-width="1" fill="none"></path></g></g><mask></mask><g stroke-linecap="round" transform="translate(397.4365555442473 383.98749351603146) rotate(0 83.45218714847806 40)"><path d="M20 0 C65.46 0, 110.92 0, 146.9 0 M20 0 C47.76 0, 75.52 0, 146.9 0 M146.9 0 C160.24 0, 166.9 6.67, 166.9 20 M146.9 0 C160.24 0, 166.9 6.67, 166.9 20 M166.9 20 C166.9 33.44, 166.9 46.87, 166.9 60 M166.9 20 C166.9 33.74, 166.9 47.49, 166.9 60 M166.9 60 C166.9 73.33, 160.24 80, 146.9 80 M166.9 60 C166.9 73.33, 160.24 80, 146.9 80 M146.9 80 C104.36 80, 61.82 80, 20 80 M146.9 80 C118.9 80, 90.9 80, 20 80 M20 80 C6.67 80, 0 73.33, 0 60 M20 80 C6.67 80, 0 73.33, 0 60 M0 60 C0 47.95, 0 35.9, 0 20 M0 60 C0 47.61, 0 35.22, 0 20 M0 20 C0 6.67, 6.67 0, 20 0 M0 20 C0 6.67, 6.67 0, 20 0" stroke="#000000" stroke-width="1" fill="none"></path></g><g transform="translate(448.4887411668469 406.48749351603146) rotate(0 32.400001525878906 17.5)"><text x="32.400001525878906" y="0" font-family="Virgil, Segoe UI Emoji" font-size="28px" fill="#000000" text-anchor="middle" style="white-space: pre;" direction="ltr" dominant-baseline="text-before-edge">Node</text></g><g stroke-linecap="round"><g transform="translate(173.77273316845003 479.61587264685386) rotate(0 -68.27273316845049 53.84527619034907)"><path d="M0 0 C-22.76 17.95, -113.79 89.74, -136.55 107.69 M0 0 C-22.76 17.95, -113.79 89.74, -136.55 107.69" stroke="#000000" stroke-width="1" fill="none"></path></g></g><mask></mask><g stroke-linecap="round"><g transform="translate(177.27273316845094 481.11587264685386) rotate(0 -0.2727331684504861 55.34527619034907)"><path d="M0 0 C-0.09 18.45, -0.45 92.24, -0.55 110.69 M0 0 C-0.09 18.45, -0.45 92.24, -0.55 110.69" stroke="#000000" stroke-width="1" fill="none"></path></g></g><mask></mask><g stroke-linecap="round"><g transform="translate(179.27273316845094 480.11587264685386) rotate(0 69.22726683154951 48.84527619034907)"><path d="M0 0 C23.08 16.28, 115.38 81.41, 138.45 97.69 M0 0 C23.08 16.28, 115.38 81.41, 138.45 97.69" stroke="#000000" stroke-width="1" fill="none"></path></g></g><mask></mask><g transform="translate(10 590.9611488372029) rotate(0 14.800000190734863 22.5)"><text x="0" y="0" font-family="Virgil, Segoe UI Emoji" font-size="36px" fill="#1e1e1e" text-anchor="start" style="white-space: pre;" direction="ltr" dominant-baseline="text-before-edge">...</text></g><g transform="translate(161.19999980926514 595.4611488372029) rotate(0 14.800000190734863 22.5)"><text x="0" y="0" font-family="Virgil, Segoe UI Emoji" font-size="36px" fill="#1e1e1e" text-anchor="start" style="white-space: pre;" direction="ltr" dominant-baseline="text-before-edge">...</text></g><g transform="translate(312.19999980926514 594.4611488372029) rotate(0 14.800000190734863 22.5)"><text x="0" y="0" font-family="Virgil, Segoe UI Emoji" font-size="36px" fill="#1e1e1e" text-anchor="start" style="white-space: pre;" direction="ltr" dominant-baseline="text-before-edge">...</text></g><g stroke-linecap="round"><g transform="translate(482.02273316845185 465.36587264685386) rotate(0 -0.2727331684504861 55.34527619034907)"><path d="M0 0 C-0.09 18.45, -0.45 92.24, -0.55 110.69 M0 0 C-0.09 18.45, -0.45 92.24, -0.55 110.69" stroke="#000000" stroke-width="1" fill="none"></path></g></g><mask></mask><g transform="translate(467.94999980926514 577.2111488372029) rotate(0 14.800000190734863 22.5)"><text x="0" y="0" font-family="Virgil, Segoe UI Emoji" font-size="36px" fill="#1e1e1e" text-anchor="start" style="white-space: pre;" direction="ltr" dominant-baseline="text-before-edge">...</text></g><g stroke-linecap="round"><g transform="translate(487.2191617398812 383.88372978971074) rotate(0 -80.64773316845049 -39.15472380965093)"><path d="M0 0 C-26.88 -13.05, -134.41 -65.26, -161.3 -78.31 M0 0 C-26.88 -13.05, -134.41 -65.26, -161.3 -78.31" stroke="#000000" stroke-width="1" fill="none"></path></g></g><mask></mask><g stroke-linecap="round" transform="translate(875.2104017824477 198.46655789084252) rotate(0 83.45218714847806 45.04131744726078)"><path d="M22.52 0 C48.98 0, 75.43 0, 144.38 0 M22.52 0 C54.31 0, 86.11 0, 144.38 0 M144.38 0 C159.4 0, 166.9 7.51, 166.9 22.52 M144.38 0 C159.4 0, 166.9 7.51, 166.9 22.52 M166.9 22.52 C166.9 36.36, 166.9 50.2, 166.9 67.56 M166.9 22.52 C166.9 39.02, 166.9 55.52, 166.9 67.56 M166.9 67.56 C166.9 82.58, 159.4 90.08, 144.38 90.08 M166.9 67.56 C166.9 82.58, 159.4 90.08, 144.38 90.08 M144.38 90.08 C105.95 90.08, 67.52 90.08, 22.52 90.08 M144.38 90.08 C117.51 90.08, 90.64 90.08, 22.52 90.08 M22.52 90.08 C7.51 90.08, 0 82.58, 0 67.56 M22.52 90.08 C7.51 90.08, 0 82.58, 0 67.56 M0 67.56 C0 58.41, 0 49.26, 0 22.52 M0 67.56 C0 52.22, 0 36.88, 0 22.52 M0 22.52 C0 7.51, 7.51 0, 22.52 0 M0 22.52 C0 7.51, 7.51 0, 22.52 0" stroke="#000000" stroke-width="1" fill="none"></path></g><g transform="translate(880.9542530544613 226.00787533810308) rotate(0 77.70833587646484 17.5)"><text x="77.70833587646484" y="0" font-family="Virgil, Segoe UI Emoji" font-size="28px" fill="#000000" text-anchor="middle" style="white-space: pre;" direction="ltr" dominant-baseline="text-before-edge">Model Root</text></g><g stroke-linecap="round"><g transform="translate(959.0499860884938 289.59672853966276) rotate(0 -71.89773316845049 41.47027619034907)"><path d="M0 0 C-23.97 13.82, -119.83 69.12, -143.8 82.94 M0 0 C-23.97 13.82, -119.83 69.12, -143.8 82.94" stroke="#000000" stroke-width="1" fill="none"></path></g></g><mask></mask><g stroke-linecap="round" transform="translate(728.7757588683653 373.36364131139) rotate(0 83.45218714847806 45.04131744726078)"><path d="M22.52 0 C49.56 0, 76.6 0, 144.38 0 M22.52 0 C57.02 0, 91.52 0, 144.38 0 M144.38 0 C159.4 0, 166.9 7.51, 166.9 22.52 M144.38 0 C159.4 0, 166.9 7.51, 166.9 22.52 M166.9 22.52 C166.9 33.34, 166.9 44.16, 166.9 67.56 M166.9 22.52 C166.9 34.91, 166.9 47.29, 166.9 67.56 M166.9 67.56 C166.9 82.58, 159.4 90.08, 144.38 90.08 M166.9 67.56 C166.9 82.58, 159.4 90.08, 144.38 90.08 M144.38 90.08 C112.07 90.08, 79.76 90.08, 22.52 90.08 M144.38 90.08 C105.43 90.08, 66.48 90.08, 22.52 90.08 M22.52 90.08 C7.51 90.08, 0 82.58, 0 67.56 M22.52 90.08 C7.51 90.08, 0 82.58, 0 67.56 M0 67.56 C0 51.44, 0 35.33, 0 22.52 M0 67.56 C0 57.91, 0 48.27, 0 22.52 M0 22.52 C0 7.51, 7.51 0, 22.52 0 M0 22.52 C0 7.51, 7.51 0, 22.52 0" stroke="#000000" stroke-width="1" fill="none"></path></g><g transform="translate(779.8279444909649 400.90495875865054) rotate(0 32.400001525878906 17.5)"><text x="32.400001525878906" y="0" font-family="Virgil, Segoe UI Emoji" font-size="28px" fill="#000000" text-anchor="middle" style="white-space: pre;" direction="ltr" dominant-baseline="text-before-edge">Node</text></g><g stroke-linecap="round" transform="translate(1031.8375191950745 368.26779874810563) rotate(0 83.45218714847806 40)"><path d="M20 0 C57.66 0, 95.32 0, 146.9 0 M20 0 C68.41 0, 116.81 0, 146.9 0 M146.9 0 C160.24 0, 166.9 6.67, 166.9 20 M146.9 0 C160.24 0, 166.9 6.67, 166.9 20 M166.9 20 C166.9 29.64, 166.9 39.29, 166.9 60 M166.9 20 C166.9 32.08, 166.9 44.16, 166.9 60 M166.9 60 C166.9 73.33, 160.24 80, 146.9 80 M166.9 60 C166.9 73.33, 160.24 80, 146.9 80 M146.9 80 C97 80, 47.09 80, 20 80 M146.9 80 C112.95 80, 78.99 80, 20 80 M20 80 C6.67 80, 0 73.33, 0 60 M20 80 C6.67 80, 0 73.33, 0 60 M0 60 C0 50.8, 0 41.6, 0 20 M0 60 C0 49.48, 0 38.97, 0 20 M0 20 C0 6.67, 6.67 0, 20 0 M0 20 C0 6.67, 6.67 0, 20 0" stroke="#000000" stroke-width="1" fill="none"></path></g><g transform="translate(1082.889704817674 390.76779874810563) rotate(0 32.400001525878906 17.5)"><text x="32.400001525878906" y="0" font-family="Virgil, Segoe UI Emoji" font-size="28px" fill="#000000" text-anchor="middle" style="white-space: pre;" direction="ltr" dominant-baseline="text-before-edge">Node</text></g><g stroke-linecap="round"><g transform="translate(808.1736968192781 463.89617787892803) rotate(0 -68.27273316845049 53.84527619034907)"><path d="M0 0 C-22.76 17.95, -113.79 89.74, -136.55 107.69 M0 0 C-22.76 17.95, -113.79 89.74, -136.55 107.69" stroke="#000000" stroke-width="1" fill="none"></path></g></g><mask></mask><g stroke-linecap="round"><g transform="translate(813.6736968192799 464.39617787892803) rotate(0 69.22726683154951 48.84527619034907)"><path d="M0 0 C23.08 16.28, 115.38 81.41, 138.45 97.69 M0 0 C23.08 16.28, 115.38 81.41, 138.45 97.69" stroke="#000000" stroke-width="1" fill="none"></path></g></g><mask></mask><g transform="translate(644.400963650829 575.2414540692771) rotate(0 14.800000190734863 22.5)"><text x="0" y="0" font-family="Virgil, Segoe UI Emoji" font-size="36px" fill="#1e1e1e" text-anchor="start" style="white-space: pre;" direction="ltr" dominant-baseline="text-before-edge">...</text></g><g transform="translate(946.6009634600941 578.7414540692771) rotate(0 14.800000190734863 22.5)"><text x="0" y="0" font-family="Virgil, Segoe UI Emoji" font-size="36px" fill="#1e1e1e" text-anchor="start" style="white-space: pre;" direction="ltr" dominant-baseline="text-before-edge">...</text></g><g stroke-linecap="round"><g transform="translate(1116.42369681928 450.89617787892803) rotate(0 -29.647733168450486 60.34527619034907)"><path d="M0 0 C-9.88 20.12, -49.41 100.58, -59.3 120.69 M0 0 C-9.88 20.12, -49.41 100.58, -59.3 120.69" stroke="#000000" stroke-width="1" fill="none"></path></g></g><mask></mask><g transform="translate(1036.1009634600941 578.9914540692771) rotate(0 14.800000190734863 22.5)"><text x="0" y="0" font-family="Virgil, Segoe UI Emoji" font-size="36px" fill="#1e1e1e" text-anchor="start" style="white-space: pre;" direction="ltr" dominant-baseline="text-before-edge">...</text></g><g stroke-linecap="round"><g transform="translate(1121.6201253907093 368.1640350217849) rotate(0 -80.64773316845049 -39.15472380965093)"><path d="M0 0 C-26.88 -13.05, -134.41 -65.26, -161.3 -78.31 M0 0 C-26.88 -13.05, -134.41 -65.26, -161.3 -78.31" stroke="#000000" stroke-width="1" fill="none"></path></g></g><mask></mask><g stroke-linecap="round"><g transform="translate(670.2519841269859 101.04845042450415) rotate(0 147.56944444444434 48.05555555555566)"><path d="M0 0 C49.19 16.02, 245.95 80.09, 295.14 96.11 M0 0 C49.19 16.02, 245.95 80.09, 295.14 96.11" stroke="#1e1e1e" stroke-width="1" fill="none"></path></g></g><mask></mask><g transform="translate(1176.7714283806963 574.1040059800598) rotate(0 14.800000190734863 22.5)"><text x="0" y="0" font-family="Virgil, Segoe UI Emoji" font-size="36px" fill="#1e1e1e" text-anchor="start" style="white-space: pre;" direction="ltr" dominant-baseline="text-before-edge">...</text></g><g stroke-linecap="round"><g transform="translate(1117.4691617398812 450.00872978971074) rotate(0 33.477266831549514 58.47027619034907)"><path d="M0 0 C11.16 19.49, 55.8 97.45, 66.95 116.94 M0 0 C11.16 19.49, 55.8 97.45, 66.95 116.94" stroke="#000000" stroke-width="1" fill="none"></path></g></g><mask></mask></svg>