<svg version="1.1" xmlns="http://www.w3.org/2000/svg" viewBox="0 0 1216.371428762166 647.1278155038697" width="1216.371428762166" height="647.1278155038697">
  <!-- svg-source:excalidraw -->
  
  <defs>
    <style class="style-fonts">
      @font-face {
        font-family: "Virgil";
        src: url("https://excalidraw.com/Virgil.woff2");
      }
      @font-face {
        font-family: "Cascadia";
        src: url("https://excalidraw.com/Cascadia.woff2");
      }
      @font-face {
        font-family: "Assistant";
        src: url("https://excalidraw.com/Assistant-Regular.woff2");
      }
    </style>
    
  </defs>
  <rect x="0" y="0" width="1216.371428762166" height="647.1278155038697" fill="#ffffff"></rect><g transform="translate(594.2213474981509 37.82319175945031) rotate(0 72.31666564941406 17.5)"><text x="0" y="24.528" font-family="Virgil, Segoe UI Emoji" font-size="28px" fill="#000000" text-anchor="start" style="white-space: pre;" direction="ltr" dominant-baseline="alphabetic">Root Node</text></g><g stroke-linecap="round" transform="translate(546.3497372694437 10) rotate(0 119.56329825958892 45.04131744726067)"><path d="M22.52 0 C71.34 0, 120.16 0, 216.61 0 M22.52 0 C67.83 0, 113.15 0, 216.61 0 M216.61 0 C231.62 0, 239.13 7.51, 239.13 22.52 M216.61 0 C231.62 0, 239.13 7.51, 239.13 22.52 M239.13 22.52 C239.13 34.18, 239.13 45.83, 239.13 67.56 M239.13 22.52 C239.13 35.35, 239.13 48.17, 239.13 67.56 M239.13 67.56 C239.13 82.58, 231.62 90.08, 216.61 90.08 M239.13 67.56 C239.13 82.58, 231.62 90.08, 216.61 90.08 M216.61 90.08 C156.89 90.08, 97.17 90.08, 22.52 90.08 M216.61 90.08 C155.15 90.08, 93.7 90.08, 22.52 90.08 M22.52 90.08 C7.51 90.08, 0 82.58, 0 67.56 M22.52 90.08 C7.51 90.08, 0 82.58, 0 67.56 M0 67.56 C0 56.17, 0 44.78, 0 22.52 M0 67.56 C0 51.32, 0 35.08, 0 22.52 M0 22.52 C0 7.51, 7.51 0, 22.52 0 M0 22.52 C0 7.51, 7.51 0, 22.52 0" stroke="#000000" stroke-width="1" fill="none"></path></g><g stroke-linecap="round"><g transform="translate(324.64902243766664 301.98308997425534) rotate(0 -71.89773316845049 41.47027619034907)"><path d="M0 0 C-23.97 13.82, -119.83 69.12, -143.8 82.94 M0 0 C-23.97 13.82, -119.83 69.12, -143.8 82.94" stroke="#000000" stroke-width="1" fill="none"></path></g></g><mask></mask><g stroke-linecap="round" transform="translate(94.37479521753812 385.75000274598256) rotate(0 83.45218714847806 45.04131744726078)"><path d="M22.52 0 C56.65 0, 90.78 0, 144.38 0 M22.52 0 C69.91 0, 117.29 0, 144.38 0 M144.38 0 C159.4 0, 166.9 7.51, 166.9 22.52 M144.38 0 C159.4 0, 166.9 7.51, 166.9 22.52 M166.9 22.52 C166.9 40, 166.9 57.49, 166.9 67.56 M166.9 22.52 C166.9 36.7, 166.9 50.89, 166.9 67.56 M166.9 67.56 C166.9 82.58, 159.4 90.08, 144.38 90.08 M166.9 67.56 C166.9 82.58, 159.4 90.08, 144.38 90.08 M144.38 90.08 C108.91 90.08, 73.43 90.08, 22.52 90.08 M144.38 90.08 C103.86 90.08, 63.33 90.08, 22.52 90.08 M22.52 90.08 C7.51 90.08, 0 82.58, 0 67.56 M22.52 90.08 C7.51 90.08, 0 82.58, 0 67.56 M0 67.56 C0 54.01, 0 40.45, 0 22.52 M0 67.56 C0 49.67, 0 31.78, 0 22.52 M0 22.52 C0 7.51, 7.51 0, 22.52 0 M0 22.52 C0 7.51, 7.51 0, 22.52 0" stroke="#000000" stroke-width="1" fill="none"></path></g><g transform="translate(145.42698084013773 413.2913201932431) rotate(0 32.400001525878906 17.5)"><text x="32.400001525878906" y="24.528" font-family="Virgil, Segoe UI Emoji" font-size="28px" fill="#000000" text-anchor="middle" style="white-space: pre;" direction="ltr" dominant-baseline="alphabetic">Node</text></g><g stroke-linecap="round"><g transform="translate(673.972076026057 100.07082684936518) rotate(0 -170.20833333333348 57.2222222222224)"><path d="M0 0 C-56.74 19.07, -283.68 95.37, -340.42 114.44 M0 0 C-56.74 19.07, -283.68 95.37, -340.42 114.44" stroke="#1e1e1e" stroke-width="1" fill="none"></path></g></g><mask></mask><g stroke-linecap="round" transform="translate(397.4365555442473 380.6541601826982) rotate(0 83.45218714847806 40)"><path d="M20 0 C62.21 0, 104.41 0, 146.9 0 M20 0 C68.63 0, 117.25 0, 146.9 0 M146.9 0 C160.24 0, 166.9 6.67, 166.9 20 M146.9 0 C160.24 0, 166.9 6.67, 166.9 20 M166.9 20 C166.9 29.99, 166.9 39.98, 166.9 60 M166.9 20 C166.9 32.12, 166.9 44.23, 166.9 60 M166.9 60 C166.9 73.33, 160.24 80, 146.9 80 M166.9 60 C166.9 73.33, 160.24 80, 146.9 80 M146.9 80 C112.2 80, 77.51 80, 20 80 M146.9 80 C119.87 80, 92.84 80, 20 80 M20 80 C6.67 80, 0 73.33, 0 60 M20 80 C6.67 80, 0 73.33, 0 60 M0 60 C0 49.55, 0 39.1, 0 20 M0 60 C0 46.19, 0 32.38, 0 20 M0 20 C0 6.67, 6.67 0, 20 0 M0 20 C0 6.67, 6.67 0, 20 0" stroke="#000000" stroke-width="1" fill="none"></path></g><g transform="translate(448.4887411668469 403.1541601826982) rotate(0 32.400001525878906 17.5)"><text x="32.400001525878906" y="24.528" font-family="Virgil, Segoe UI Emoji" font-size="28px" fill="#000000" text-anchor="middle" style="white-space: pre;" direction="ltr" dominant-baseline="alphabetic">Node</text></g><g stroke-linecap="round"><g transform="translate(173.77273316844912 476.2825393135206) rotate(0 -68.27273316845049 53.84527619034907)"><path d="M0 0 C-22.76 17.95, -113.79 89.74, -136.55 107.69 M0 0 C-22.76 17.95, -113.79 89.74, -136.55 107.69" stroke="#000000" stroke-width="1" fill="none"></path></g></g><mask></mask><g stroke-linecap="round"><g transform="translate(177.27273316845094 477.7825393135206) rotate(0 -0.2727331684504861 55.34527619034907)"><path d="M0 0 C-0.09 18.45, -0.45 92.24, -0.55 110.69 M0 0 C-0.09 18.45, -0.45 92.24, -0.55 110.69" stroke="#000000" stroke-width="1" fill="none"></path></g></g><mask></mask><g stroke-linecap="round"><g transform="translate(179.27273316845094 476.7825393135206) rotate(0 69.22726683154951 48.84527619034907)"><path d="M0 0 C23.08 16.28, 115.38 81.41, 138.45 97.69 M0 0 C23.08 16.28, 115.38 81.41, 138.45 97.69" stroke="#000000" stroke-width="1" fill="none"></path></g></g><mask></mask><g transform="translate(10 587.6278155038697) rotate(0 14.800000190734863 22.5)"><text x="0" y="31.536" font-family="Virgil, Segoe UI Emoji" font-size="36px" fill="#1e1e1e" text-anchor="start" style="white-space: pre;" direction="ltr" dominant-baseline="alphabetic">...</text></g><g transform="translate(161.19999980926514 592.1278155038697) rotate(0 14.800000190734863 22.5)"><text x="0" y="31.536" font-family="Virgil, Segoe UI Emoji" font-size="36px" fill="#1e1e1e" text-anchor="start" style="white-space: pre;" direction="ltr" dominant-baseline="alphabetic">...</text></g><g transform="translate(312.19999980926514 591.1278155038697) rotate(0 14.800000190734863 22.5)"><text x="0" y="31.536" font-family="Virgil, Segoe UI Emoji" font-size="36px" fill="#1e1e1e" text-anchor="start" style="white-space: pre;" direction="ltr" dominant-baseline="alphabetic">...</text></g><g stroke-linecap="round"><g transform="translate(482.02273316845276 462.0325393135206) rotate(0 -0.2727331684504861 55.34527619034907)"><path d="M0 0 C-0.09 18.45, -0.45 92.24, -0.55 110.69 M0 0 C-0.09 18.45, -0.45 92.24, -0.55 110.69" stroke="#000000" stroke-width="1" fill="none"></path></g></g><mask></mask><g transform="translate(467.94999980926514 573.8778155038697) rotate(0 14.800000190734863 22.5)"><text x="0" y="31.536" font-family="Virgil, Segoe UI Emoji" font-size="36px" fill="#1e1e1e" text-anchor="start" style="white-space: pre;" direction="ltr" dominant-baseline="alphabetic">...</text></g><g stroke-linecap="round"><g transform="translate(487.2191617398803 380.5503964563775) rotate(0 -80.64773316845049 -39.15472380965093)"><path d="M0 0 C-26.88 -13.05, -134.41 -65.26, -161.3 -78.31 M0 0 C-26.88 -13.05, -134.41 -65.26, -161.3 -78.31" stroke="#000000" stroke-width="1" fill="none"></path></g></g><mask></mask><g stroke-linecap="round" transform="translate(720.7659573380042 204.02211344639795) rotate(0 228.45218714847806 45.04131744726078)"><path d="M22.52 0 C125.37 0, 228.22 0, 434.38 0 M22.52 0 C147.29 0, 272.06 0, 434.38 0 M434.38 0 C449.4 0, 456.9 7.51, 456.9 22.52 M434.38 0 C449.4 0, 456.9 7.51, 456.9 22.52 M456.9 22.52 C456.9 34.84, 456.9 47.15, 456.9 67.56 M456.9 22.52 C456.9 32.12, 456.9 41.71, 456.9 67.56 M456.9 67.56 C456.9 82.58, 449.4 90.08, 434.38 90.08 M456.9 67.56 C456.9 82.58, 449.4 90.08, 434.38 90.08 M434.38 90.08 C326.76 90.08, 219.13 90.08, 22.52 90.08 M434.38 90.08 C292.21 90.08, 150.03 90.08, 22.52 90.08 M22.52 90.08 C7.51 90.08, 0 82.58, 0 67.56 M22.52 90.08 C7.51 90.08, 0 82.58, 0 67.56 M0 67.56 C0 57.32, 0 47.08, 0 22.52 M0 67.56 C0 57.58, 0 47.6, 0 22.52 M0 22.52 C0 7.51, 7.51 0, 22.52 0 M0 22.52 C0 7.51, 7.51 0, 22.52 0" stroke="#000000" stroke-width="1" fill="none"></path></g><g transform="translate(832.1098147135326 231.5634308936585) rotate(0 117.10832977294922 17.5)"><text x="117.10832977294922" y="24.528" font-family="Virgil, Segoe UI Emoji" font-size="28px" fill="#000000" text-anchor="middle" style="white-space: pre;" direction="ltr" dominant-baseline="alphabetic">Model Root Node</text></g><g stroke-linecap="round"><g transform="translate(959.0499860884938 295.1522840952182) rotate(0 -71.89773316845049 41.47027619034907)"><path d="M0 0 C-23.97 13.82, -119.83 69.12, -143.8 82.94 M0 0 C-23.97 13.82, -119.83 69.12, -143.8 82.94" stroke="#000000" stroke-width="1" fill="none"></path></g></g><mask></mask><g stroke-linecap="round" transform="translate(728.7757588683653 378.9191968669454) rotate(0 83.45218714847806 45.04131744726078)"><path d="M22.52 0 C49.94 0, 77.36 0, 144.38 0 M22.52 0 C58.26 0, 93.99 0, 144.38 0 M144.38 0 C159.4 0, 166.9 7.51, 166.9 22.52 M144.38 0 C159.4 0, 166.9 7.51, 166.9 22.52 M166.9 22.52 C166.9 34.28, 166.9 46.05, 166.9 67.56 M166.9 22.52 C166.9 37.07, 166.9 51.63, 166.9 67.56 M166.9 67.56 C166.9 82.58, 159.4 90.08, 144.38 90.08 M166.9 67.56 C166.9 82.58, 159.4 90.08, 144.38 90.08 M144.38 90.08 C98.28 90.08, 52.18 90.08, 22.52 90.08 M144.38 90.08 C109.36 90.08, 74.33 90.08, 22.52 90.08 M22.52 90.08 C7.51 90.08, 0 82.58, 0 67.56 M22.52 90.08 C7.51 90.08, 0 82.58, 0 67.56 M0 67.56 C0 51.86, 0 36.17, 0 22.52 M0 67.56 C0 50.8, 0 34.03, 0 22.52 M0 22.52 C0 7.51, 7.51 0, 22.52 0 M0 22.52 C0 7.51, 7.51 0, 22.52 0" stroke="#000000" stroke-width="1" fill="none"></path></g><g transform="translate(779.8279444909649 406.46051431420597) rotate(0 32.400001525878906 17.5)"><text x="32.400001525878906" y="24.528" font-family="Virgil, Segoe UI Emoji" font-size="28px" fill="#000000" text-anchor="middle" style="white-space: pre;" direction="ltr" dominant-baseline="alphabetic">Node</text></g><g stroke-linecap="round" transform="translate(1031.8375191950745 373.82335430366106) rotate(0 83.45218714847806 40)"><path d="M20 0 C61.67 0, 103.34 0, 146.9 0 M20 0 C60.37 0, 100.74 0, 146.9 0 M146.9 0 C160.24 0, 166.9 6.67, 166.9 20 M146.9 0 C160.24 0, 166.9 6.67, 166.9 20 M166.9 20 C166.9 34.26, 166.9 48.52, 166.9 60 M166.9 20 C166.9 34.52, 166.9 49.04, 166.9 60 M166.9 60 C166.9 73.33, 160.24 80, 146.9 80 M166.9 60 C166.9 73.33, 160.24 80, 146.9 80 M146.9 80 C120.95 80, 95 80, 20 80 M146.9 80 C96.26 80, 45.62 80, 20 80 M20 80 C6.67 80, 0 73.33, 0 60 M20 80 C6.67 80, 0 73.33, 0 60 M0 60 C0 44.43, 0 28.86, 0 20 M0 60 C0 50.05, 0 40.1, 0 20 M0 20 C0 6.67, 6.67 0, 20 0 M0 20 C0 6.67, 6.67 0, 20 0" stroke="#000000" stroke-width="1" fill="none"></path></g><g transform="translate(1082.889704817674 396.32335430366106) rotate(0 32.400001525878906 17.5)"><text x="32.400001525878906" y="24.528" font-family="Virgil, Segoe UI Emoji" font-size="28px" fill="#000000" text-anchor="middle" style="white-space: pre;" direction="ltr" dominant-baseline="alphabetic">Node</text></g><g stroke-linecap="round"><g transform="translate(808.1736968192781 469.45173343448346) rotate(0 -68.27273316845049 53.84527619034907)"><path d="M0 0 C-22.76 17.95, -113.79 89.74, -136.55 107.69 M0 0 C-22.76 17.95, -113.79 89.74, -136.55 107.69" stroke="#000000" stroke-width="1" fill="none"></path></g></g><mask></mask><g stroke-linecap="round"><g transform="translate(813.6736968192799 469.95173343448346) rotate(0 69.22726683154951 48.84527619034907)"><path d="M0 0 C23.08 16.28, 115.38 81.41, 138.45 97.69 M0 0 C23.08 16.28, 115.38 81.41, 138.45 97.69" stroke="#000000" stroke-width="1" fill="none"></path></g></g><mask></mask><g transform="translate(644.400963650829 571.9081207359438) rotate(0 14.800000190734863 22.5)"><text x="0" y="31.536" font-family="Virgil, Segoe UI Emoji" font-size="36px" fill="#1e1e1e" text-anchor="start" style="white-space: pre;" direction="ltr" dominant-baseline="alphabetic">...</text></g><g transform="translate(946.6009634600941 584.2970096248325) rotate(0 14.800000190734863 22.5)"><text x="0" y="31.536" font-family="Virgil, Segoe UI Emoji" font-size="36px" fill="#1e1e1e" text-anchor="start" style="white-space: pre;" direction="ltr" dominant-baseline="alphabetic">...</text></g><g stroke-linecap="round"><g transform="translate(1116.42369681928 456.45173343448346) rotate(0 -29.647733168450486 60.34527619034907)"><path d="M0 0 C-9.88 20.12, -49.41 100.58, -59.3 120.69 M0 0 C-9.88 20.12, -49.41 100.58, -59.3 120.69" stroke="#000000" stroke-width="1" fill="none"></path></g></g><mask></mask><g transform="translate(1036.1009634600941 584.5470096248325) rotate(0 14.800000190734863 22.5)"><text x="0" y="31.536" font-family="Virgil, Segoe UI Emoji" font-size="36px" fill="#1e1e1e" text-anchor="start" style="white-space: pre;" direction="ltr" dominant-baseline="alphabetic">...</text></g><g stroke-linecap="round"><g transform="translate(1121.6201253907093 373.71959057734034) rotate(0 -80.64773316845049 -39.15472380965093)"><path d="M0 0 C-26.88 -13.05, -134.41 -65.26, -161.3 -78.31 M0 0 C-26.88 -13.05, -134.41 -65.26, -161.3 -78.31" stroke="#000000" stroke-width="1" fill="none"></path></g></g><mask></mask><g stroke-linecap="round"><g transform="translate(674.6964285714303 99.93733931339307) rotate(0 143.125 51.94444444444457)"><path d="M0 0 C47.71 17.31, 238.54 86.57, 286.25 103.89 M0 0 C47.71 17.31, 238.54 86.57, 286.25 103.89" stroke="#1e1e1e" stroke-width="1" fill="none"></path></g></g><mask></mask><g transform="translate(1176.7714283806963 579.6595615356152) rotate(0 14.800000190734863 22.5)"><text x="0" y="31.536" font-family="Virgil, Segoe UI Emoji" font-size="36px" fill="#1e1e1e" text-anchor="start" style="white-space: pre;" direction="ltr" dominant-baseline="alphabetic">...</text></g><g stroke-linecap="round"><g transform="translate(1117.4691617398803 455.56428534526617) rotate(0 33.477266831549514 58.47027619034907)"><path d="M0 0 C11.16 19.49, 55.8 97.45, 66.95 116.94 M0 0 C11.16 19.49, 55.8 97.45, 66.95 116.94" stroke="#000000" stroke-width="1" fill="none"></path></g></g><mask></mask><g stroke-linecap="round" transform="translate(125.70257475628023 214.6618948820012) rotate(0 201.78552048181155 45)"><path d="M22.5 0 C113.17 0, 203.84 0, 381.07 0 M22.5 0 C151.81 0, 281.12 0, 381.07 0 M381.07 0 C396.07 0, 403.57 7.5, 403.57 22.5 M381.07 0 C396.07 0, 403.57 7.5, 403.57 22.5 M403.57 22.5 C403.57 37.65, 403.57 52.8, 403.57 67.5 M403.57 22.5 C403.57 31.84, 403.57 41.17, 403.57 67.5 M403.57 67.5 C403.57 82.5, 396.07 90, 381.07 90 M403.57 67.5 C403.57 82.5, 396.07 90, 381.07 90 M381.07 90 C266.17 90, 151.26 90, 22.5 90 M381.07 90 C246.28 90, 111.49 90, 22.5 90 M22.5 90 C7.5 90, 0 82.5, 0 67.5 M22.5 90 C7.5 90, 0 82.5, 0 67.5 M0 67.5 C0 57.79, 0 48.09, 0 22.5 M0 67.5 C0 54.84, 0 42.19, 0 22.5 M0 22.5 C0 7.5, 7.5 0, 22.5 0 M0 22.5 C0 7.5, 7.5 0, 22.5 0" stroke="#000000" stroke-width="1" fill="none"></path></g><g transform="translate(210.37976546514255 242.1618948820012) rotate(0 117.10832977294922 17.5)"><text x="117.10832977294922" y="24.528" font-family="Virgil, Segoe UI Emoji" font-size="28px" fill="#000000" text-anchor="middle" style="white-space: pre;" direction="ltr" dominant-baseline="alphabetic">Model Root Node</text></g></svg>